# xmcd
#
# Track frame offsets:
# 150
# 15262
# 25857
# 35937
# 52937
# 57820
# 64277
# 77335
# 88750
# 100852
# 112040
# 120895
# 131342
# 148190
# 160975
# 173195
# 183805
#
# Disc length: 2571 seconds
#
#
# Revision: 2
# Processed by: cddbd v1.5.1PL0 Copyright (c) Steve Scherf et al.
# Submitted via: FreeRIP 2.60 
#
DISCID=d60a0911
DTITLE=Johnny Winter - Nightrider
DYEAR=1991
DGENRE=Blues
TTITLE0=Hook  You
TTITLE1=Hello My Lover
TTITLE2=Half A Pint
TTITLE3=Careful With A Fool
TTITLE4=Bad News (unissued take)
TTITLE5=Bad News (issued take)
TTITLE6=Bad News (alternative version)
TTITLE7=Eternally
TTITLE8=Parchman Farm (unissued version)
TTITLE9=Voo Doo Twist
TTITLE10=I Had To Cry
TTITLE11=Night Ride
TTITLE12=Kind Hearted Woman
TTITLE13=Leaving Blues (unissued take)
TTITLE14=How Do You Live A Lie
TTITLE15=Lost Without You
TTITLE16=Rockin' Pneumonia
EXTD=
EXTT0=
EXTT1=
EXTT2=
EXTT3=
EXTT4=
EXTT5=
EXTT6=
EXTT7=
EXTT8=
EXTT9=
EXTT10=
EXTT11=
EXTT12=
EXTT13=
EXTT14=
EXTT15=
EXTT16=
PLAYORDER=
